<svg xmlns="http://www.w3.org/2000/svg" viewBox="0 0 200 38.45"><defs><style>.cls-1{fill:#00537b;}.cls-2{fill:#fff;}.cls-2,.cls-3{opacity:0.99;}.cls-3{fill:#f1f2f2;}</style></defs><title>Logo</title><g id="Layer_2" data-name="Layer 2"><g id="Layer_1-2" data-name="Layer 1"><rect class="cls-1" y="2.57" width="200" height="33.31" rx="5.05" ry="5.05"/><path class="cls-2" d="M18.47,30.77V20.34H6.74V30.77H4.18V7.71H6.74V18H18.47V7.71H21V30.77Z"/><path class="cls-2" d="M24.63,30.77,31,7.71h5.6L42.9,30.77H40.36L38.7,24.84H28.83l-1.66,5.93ZM32.9,9.91,29.4,22.54h8.73L34.63,9.91Z"/><path class="cls-2" d="M60.36,28.21l.1,2.2a31.76,31.76,0,0,1-6.17.7,10.93,10.93,0,0,1-4.41-.75A5.43,5.43,0,0,1,47.29,28,10.44,10.44,0,0,1,46,24.39a31.45,31.45,0,0,1-.35-5.11A32.17,32.17,0,0,1,46,14.11a10.65,10.65,0,0,1,1.28-3.66,5.36,5.36,0,0,1,2.55-2.34,11,11,0,0,1,4.35-.73,25.59,25.59,0,0,1,2.9.18c1,.13,2.16.31,3.37.55l-.1,2.17a34.34,34.34,0,0,0-6-.6,7.31,7.31,0,0,0-3,.52,4,4,0,0,0-1.85,1.66,7.92,7.92,0,0,0-.94,3,35.09,35.09,0,0,0-.24,4.46,34,34,0,0,0,.21,4.23,9.34,9.34,0,0,0,.85,2.87,3.78,3.78,0,0,0,1.85,1.85,9.18,9.18,0,0,0,3.58.55A30.73,30.73,0,0,0,60.36,28.21Z"/><path class="cls-2" d="M67.22,30.77H64.66V7.71h2.56V18.44l3.8-.13,5.9-10.6h2.93l-6.6,11.6,7,11.46h-3L71.05,20.58l-3.83.13Z"/><path class="cls-2" d="M90,9.61q-5,0-5,3.77a5,5,0,0,0,.25,1.72,2.57,2.57,0,0,0,.9,1.16,5.69,5.69,0,0,0,1.78.82c.76.22,1.72.46,2.9.73a22.48,22.48,0,0,1,3,.87,6.33,6.33,0,0,1,2,1.16,4.12,4.12,0,0,1,1.11,1.7A7.28,7.28,0,0,1,97.24,24q0,7.1-7.36,7.09c-.82,0-1.74-.05-2.75-.15s-2.13-.24-3.35-.41l-1.2-.17.27-2.13a57.63,57.63,0,0,0,6.9.6c3.28,0,4.93-1.55,4.93-4.63a4.61,4.61,0,0,0-.25-1.59,2.56,2.56,0,0,0-.84-1.1A5,5,0,0,0,92,20.73a21.44,21.44,0,0,0-2.49-.62,24.83,24.83,0,0,1-3.29-.9A7,7,0,0,1,84,18a4.26,4.26,0,0,1-1.24-1.81,7.65,7.65,0,0,1-.39-2.6q0-6.21,7.43-6.2a39.94,39.94,0,0,1,5.83.5L96.78,8l-.24,2.17q-2.33-.27-4-.42C91.49,9.66,90.62,9.61,90,9.61Z"/><path class="cls-3" d="M144.25,7.71V23.84q0,5,5.4,5a6.41,6.41,0,0,0,4.23-1.18,4.75,4.75,0,0,0,1.4-3.82V7.71h2.53V23.77c0,2.6-.68,4.48-2,5.62s-3.38,1.72-6.06,1.72-4.7-.58-6-1.72-2-3-2-5.62V7.71Z"/><path class="cls-3" d="M169.67,9.61q-5,0-5,3.77a5.28,5.28,0,0,0,.24,1.72,2.53,2.53,0,0,0,.91,1.16,5.58,5.58,0,0,0,1.78.82c.75.22,1.72.46,2.9.73a22.94,22.94,0,0,1,3,.87,6.28,6.28,0,0,1,2,1.16,4.15,4.15,0,0,1,1.12,1.7,7.54,7.54,0,0,1,.35,2.44q0,7.1-7.37,7.09c-.82,0-1.74-.05-2.74-.15s-2.13-.24-3.35-.41l-1.2-.17.26-2.13a57.8,57.8,0,0,0,6.9.6c3.29,0,4.93-1.55,4.93-4.63a4.39,4.39,0,0,0-.25-1.59,2.54,2.54,0,0,0-.83-1.1,5.1,5.1,0,0,0-1.57-.76,20.71,20.71,0,0,0-2.48-.62,24.59,24.59,0,0,1-3.3-.9A7.07,7.07,0,0,1,163.71,18a4.29,4.29,0,0,1-1.25-1.81,7.93,7.93,0,0,1-.38-2.6q0-6.21,7.43-6.2a40,40,0,0,1,5.83.5l1.13.16-.23,2.17c-1.56-.18-2.88-.32-4-.42S170.32,9.61,169.67,9.61Z"/><path class="cls-3" d="M181.37,30.77V7.71h14V10H183.93v8h9.47v2.24h-9.47v8.33H195.4v2.26Z"/><circle class="cls-2" cx="119.46" cy="19.23" r="19.23"/><path class="cls-1" d="M111.56,31.73V30.47a50.11,50.11,0,0,0,5.83-5.67,38.26,38.26,0,0,0,5.07-6.71A11.71,11.71,0,0,0,124,12.38q0-3.45-1.57-5.08a5.23,5.23,0,0,0-3.91-1.62A4.44,4.44,0,0,0,115,7.17a4.88,4.88,0,0,0-1.26,3.19,3.56,3.56,0,0,0,1.64,3.07c.4.28.6.49.6.64s-.23.57-.68,1a1.94,1.94,0,0,1-1.13.63c-.41,0-.89-.41-1.47-1.22a5.36,5.36,0,0,1-.85-3.14,5.82,5.82,0,0,1,2.4-4.9,8.57,8.57,0,0,1,5.26-1.8,8.66,8.66,0,0,1,5.46,1.88,6.58,6.58,0,0,1,2.43,5.56,9.35,9.35,0,0,1-1.09,4.41A33,33,0,0,1,121,22.86q-4.22,4.29-6.77,6.44H127l-1.15,4.52h-1a2.27,2.27,0,0,1,.12-.72,2,2,0,0,0,.06-.55c0-.4-.08-.64-.26-.71a4.78,4.78,0,0,0-1.41-.11Z"/></g></g></svg>